:SAMPLES-PER-SECOND 30
:FULLY-SPECIFIED
:DEGREES
121
root  8.66279 37.6823 -0.255742 -4.29446 -84.2871 11.8384
RightUpLeg  -45.2173 -18.8563 1.49735
RightLeg  41.376 -5.37054 -5.3291
RightFoot  -0.86698 -0.879988 9.52345
RightToes  5.82063e-011 0 -3.6325e-017
Spine  64.7902 -6.00223 6.85906
Spine1  13.19 0.873591 -6.54141
HEad  -41.733 -4.64831 3.12252
LeftShoulder1  2.1835 -22.6992 0.144464
LeftArm  -77.6228 -76.2955 23.1015
LeftForeArm  -23.9741 3.98562 -0.605412
LeftHand  -0.244104 0.0205437 5.32207
RightShoulder  0.596876 10.5342 -4.73723
RightArm  -67.4876 72.6821 -2.39947
RightForeArm  -61.9343 -0.432151 1.83698
RightHand  -4.6449 14.0378 -27.564
LeftUpLeg  -39.8656 21.6184 -14.852
LeftLeg  30.3056 1.07823 1.03167
LeftFoot  -1.2053 -0.954865 10.8159
LeftToes  1.45487e-011 -6.19069e-011 1.65092e-011
122
root  9.65101 37.8055 -0.37834 -0.336929 -84.6275 7.99309
RightUpLeg  -44.8397 -17.2017 1.31232
RightLeg  49.1192 -5.59853 -7.23661
RightFoot  -0.132015 -0.772289 7.87123
RightToes  5.82063e-011 0 -3.6325e-017
Spine  64.6184 -5.93806 7.21938
Spine1  13.4176 1.20021 -6.6761
HEad  -41.6836 -4.55379 3.03384
LeftShoulder1  2.26052 -22.8006 -0.149264
LeftArm  -76.4182 -76.1136 22.0576
LeftForeArm  -23.9712 4.15173 -0.642164
LeftHand  -0.244104 0.0205437 5.32207
RightShoulder  0.635241 10.5589 -4.43398
RightArm  -66.7049 73.0109 -1.42017
RightForeArm  -61.41 -0.319916 1.94674
RightHand  -4.74219 14.3095 -27.7401
LeftUpLeg  -40.031 22.2676 -15.2678
LeftLeg  26.6505 0.147797 0.423371
LeftFoot  1.75294 -1.32639 11.421
LeftToes  1.45487e-011 -6.19069e-011 1.65092e-011
123
root  10.6103 37.8132 -0.550104 1.48067 -84.8167 6.13965
RightUpLeg  -43.3144 -16.0276 1.23599
RightLeg  54.9261 -5.34931 -8.51691
RightFoot  1.37583 -0.804487 7.29263
RightToes  5.82063e-011 0 -3.6325e-017
Spine  64.1969 -5.86389 7.3168
Spine1  13.8501 1.33224 -6.6646
HEad  -41.15 -4.29492 2.54741
LeftShoulder1  2.42474 -22.8637 -0.82964
LeftArm  -74.5867 -75.7389 20.7044
LeftForeArm  -23.964 4.32875 -0.781515
LeftHand  -0.244104 0.0205437 5.32207
RightShoulder  0.636182 10.6721 -4.46722
RightArm  -65.9322 73.5842 0.214876
RightForeArm  -61.0226 -0.270517 1.888
RightHand  -5.00102 14.8876 -28.3832
LeftUpLeg  -40.2298 22.9582 -15.9275
LeftLeg  23.226 -0.86133 -0.0703344
LeftFoot  4.51499 -1.66716 11.7416
LeftToes  1.45487e-011 -6.19069e-011 1.65092e-011
124
root  11.5553 37.7202 -0.793724 1.11473 -84.4367 6.23383
RightUpLeg  -39.7554 -15.3959 1.05675
RightLeg  56.503 -4.659 -7.98816
RightFoot  -1.00037 -0.732537 8.05204
RightToes  5.82063e-011 0 -3.6325e-017
Spine  63.5895 -5.86714 7.35288
Spine1  14.3157 1.06392 -6.19769
HEad  -40.416 -3.91991 2.29353
LeftShoulder1  2.57609 -22.7847 -1.51133
LeftArm  -72.4194 -75.4647 18.8061
LeftForeArm  -23.9338 4.59657 -0.888923
LeftHand  -0.244104 0.0205437 5.32207
RightShoulder  0.63897 10.9983 -4.56222
RightArm  -64.2237 73.9142 2.5058
RightForeArm  -60.988 -0.0615639 1.9694
RightHand  -5.23769 15.3528 -29.0224
LeftUpLeg  -40.6362 23.7253 -16.9028
LeftLeg  20.6335 -2.17746 -0.558626
LeftFoot  7.52527 -1.97022 11.5346
LeftToes  1.45487e-011 -6.19069e-011 1.65092e-011
125
root  12.5195 37.625 -1.07737 3.27238 -84.2131 3.80247
RightUpLeg  -35.7472 -15.2848 1.81852
RightLeg  53.2047 -4.35851 -6.6347
RightFoot  -7.71249 -0.298365 7.17769
RightToes  5.82063e-011 0 -3.6325e-017
Spine  63.1887 -5.75715 7.7949
Spine1  14.5119 0.924567 -5.53628
HEad  -39.8495 -3.71058 2.46209
LeftShoulder1  2.66259 -22.5734 -1.97654
LeftArm  -70.5268 -75.5929 16.6418
LeftForeArm  -23.6347 4.83529 -0.912269
LeftHand  -0.244104 0.0205437 5.32207
RightShoulder  0.668391 11.1393 -4.37935
RightArm  -61.8045 74.0201 5.04143
RightForeArm  -60.8553 0.285815 2.23832
RightHand  -5.41419 15.6783 -29.5059
LeftUpLeg  -41.1576 24.7593 -17.6095
LeftLeg  18.1752 -3.88522 -1.14482
LeftFoot  10.7421 -2.35253 11.6383
LeftToes  1.45487e-011 -6.19069e-011 1.65092e-011
126
root  13.568 37.5517 -1.34366 8.27559 -84.6208 -1.09122
RightUpLeg  -33.9878 -15.9802 3.67085
RightLeg  47.7759 -4.506 -5.64114
RightFoot  -13.0985 -0.0299035 3.43374
RightToes  5.82063e-011 0 -3.6325e-017
Spine  63.3082 -5.48943 8.34695
Spine1  14.3316 1.26604 -5.26457
HEad  -39.702 -3.58738 2.49629
LeftShoulder1  2.75772 -22.3521 -2.49163
LeftArm  -69.889 -75.8332 15.7696
LeftForeArm  -23.1875 4.85966 -0.93692
LeftHand  -0.244104 0.0205437 5.32207
RightShoulder  0.669172 10.8123 -4.2554
RightArm  -60.5899 74.3802 6.61482
RightForeArm  -60.2131 0.607783 2.37783
RightHand  -5.63182 16.134 -30.0085
LeftUpLeg  -41.3097 24.3144 -16.2839
LeftLeg  15.0119 -4.15063 -2.28862
LeftFoot  14.6217 -2.55194 10.6811
LeftToes  1.45487e-011 -6.19069e-011 1.65092e-011
127
root  14.6872 37.5728 -1.55214 15.3532 -85.276 -7.74716
RightUpLeg  -34.7816 -17.5367 6.03897
RightLeg  43.4865 -4.47046 -4.83807
RightFoot  -13.1881 -0.0981533 -1.29666
RightToes  5.82063e-011 0 -3.6325e-017
Spine  63.4501 -5.27192 8.7455
Spine1  13.9318 1.61771 -5.33961
HEad  -40.0201 -3.16878 2.10823
LeftShoulder1  2.85594 -22.132 -3.0285
LeftArm  -71.5546 -75.5963 17.8309
LeftForeArm  -23.2895 4.56978 -0.944295
LeftHand  -0.244104 0.0205437 5.32207
RightShoulder  0.586315 10.3133 -4.74836
RightArm  -62.6216 75.1715 5.50904
RightForeArm  -59.4233 0.97732 2.17506
RightHand  -5.87011 16.6476 -30.5157
LeftUpLeg  -40.0083 19.9106 -10.4284
LeftLeg  11.0162 -0.0376074 -4.33379
LeftFoot  19.5811 -1.23844 4.18655
LeftToes  1.45487e-011 -6.19069e-011 1.65092e-011
